<svg width="76" height="39" viewBox="0 0 76 39" fill="none" xmlns="http://www.w3.org/2000/svg">
<path fill-rule="evenodd" clip-rule="evenodd" d="M0.5 21.5L1.04738 6.42578L2.49265 3.5H11.646L14.0547 6.42578V8.72461L11.646 12.0684L15.0182 13.5312L15.5 18.9648L14.0547 20.8457L0.5 21.5ZM4.90141 6.84375L9 6.42578L9.5 10L3.69703 11.0234L4.90141 6.84375ZM3.69703 14.8125L9.5 14L11.646 16.5L11.1642 18.5469H3.69703V14.8125Z" fill="#F7D100" stroke="#FF890F" stroke-linejoin="round"/>
<path fill-rule="evenodd" clip-rule="evenodd" d="M20.4655 2.71146L18 21.0781H21.8103L22.7069 13.0559H26.069L26.9655 20.6559H31L27.6379 3.34479L26.069 2.07812L20.4655 2.71146ZM22.7069 5.24479H24.7241L26.069 10.7337H22.7069V5.24479Z" fill="#F7D100" stroke="#FF890F" stroke-linejoin="round"/>
<path d="M34.881 3.1L45.8333 2.5L45.119 7.5H37.7381L38.4524 14.7L43.5 15L47.5 20.3L37.7381 20.5L34.1667 18.5L32.5 5.7L34.881 3.1Z" fill="#F7D100" stroke="#FF890F" stroke-linejoin="round"/>
<path d="M50.9795 21.5L49.5 1.8125L54.1849 0.5L54.6781 6.1875L58.1301 1.8125L63.0616 2.25L56.8973 9.6875L67.5 18.875L61.8288 21.5L54.1849 12.9688L55.4178 21.5H50.9795Z" fill="#F7D100" stroke="#FF890F" stroke-linejoin="round"/>
<path d="M2 26.5L74.5 29.5L12 32L65 37.5" stroke="#FF890F" stroke-width="2" stroke-linejoin="round"/>
</svg>
