<svg width="391" height="236" viewBox="0 0 391 236" fill="none" xmlns="http://www.w3.org/2000/svg">
<path d="M188.111 7.64C184.031 7.64 183.874 0.499738 189.131 0.5C191.976 0.500142 196.237 2.76969 194.231 7.64C188.111 22.5 158 -3.36 115 7.64C106.687 9.75458 83.6546 14.1354 58.0303 14.7419C32.406 15.3484 8.99996 14.9946 0.5 14.7419V235.5H389.5V14.7419" stroke="#FFDA6E"/>
<path d="M202.639 7.64C206.719 7.64 206.876 0.499738 201.619 0.5C198.773 0.500142 194.513 2.76969 196.519 7.64C202.639 22.5 232.75 -3.36 275.75 7.64C284.063 9.75458 307.095 14.1354 332.719 14.7419C358.344 15.3484 381.75 14.9946 390.25 14.7419" stroke="#FFDA6E"/>
</svg>
