<svg width="125" height="265" viewBox="0 0 125 265" fill="none" xmlns="http://www.w3.org/2000/svg" xmlns:xlink="http://www.w3.org/1999/xlink">
<path d="M12.0845 20.1247L15.984 35.0244L1.5 41.2326L15.984 51.1658L3.17123 64.8239H20.9977L17.6553 76.6195L37.153 69.1697C36.0388 80.9653 37.153 83.9452 37.153 83.4486C37.153 82.9519 47.7374 77.8612 58.3219 69.1697L70.5776 82.8278L82.8333 68.5488L100.66 79.7236L104.002 63.5823L121.829 61.7198L109.573 42.4743L123.5 26.1369L105.116 25.0913L107.345 8.94987L91.1895 20.1247L83.3904 3.98329L68.9064 20.1247L54.9795 1.5L47.1804 20.1247L30.468 10.1915V26.3329L12.0845 20.1247Z" fill="#0F9711" stroke="url(#pattern0_407_151)" stroke-width="3" stroke-linejoin="round"/>
<path d="M23.4266 56.9762L24.1842 44.6769L22.6689 36.0088L29.4876 35.4231L35.8733 45.614L31.3275 33.7832H39.8779L41.6096 58.6161L35.4403 58.0304L31.3275 46.4339L30.7864 56.9762H23.4266Z" fill="white" stroke="#D92F08" stroke-width="2"/>
<path d="M45.6855 33.7832H59.4362V37.6037L49.9024 39.0894V42.5207L58.8861 41.371V47.1194L49.5357 48.499V52.8854L58.8861 51.3997V57.7671L44.9521 58.6161L45.6855 33.7832Z" fill="white" stroke="#D92F08" stroke-width="2"/>
<path d="M68.0282 47.2121L62.7783 33.7832H68.875L73.7408 42.5282L76.3264 34.3276H82.7618L79.8828 45.3974L83.9473 57.3745H77.899L73.7408 48.0193L68.875 57.3745H62.7783L68.0282 47.2121Z" fill="white" stroke="#D92F08" stroke-width="2"/>
<path d="M87.8594 40.0742L86.1758 33.7832H103.854L105.116 40.0742H99.8551V57.3745H93.9625V40.0742H87.8594Z" fill="white" stroke="#D92F08" stroke-width="2"/>
<path d="M12.6865 116.166L17.2283 129.34L3.57814 135.964L18.0725 143.909L6.42451 157.14L23.6243 155.884L21.0163 166.766L39.4389 158.668C38.9809 169.393 40.2117 172.004 40.1858 171.556C40.1598 171.108 50.1059 165.767 59.8637 157.175L72.4029 168.64L83.481 154.887L101.265 163.717L103.646 148.912L120.748 145.974L107.917 129.467L120.5 113.738L102.708 114.091L104.013 99.3639L89.0106 110.589L80.6415 96.5695L67.5109 112.16L53.0994 96.3307L46.5486 113.692L29.9043 105.904L30.7485 120.473L12.6865 116.166Z" fill="#0F9711" stroke="url(#pattern1_407_151)" stroke-width="3" stroke-linejoin="round"/>
<path d="M22.6401 142.948L24.1021 131.918L23.2986 123.981L29.438 123.997L34.5031 133.696L31.1891 122.665L38.841 123.347L38.8079 145.877L33.3243 144.857L30.3828 134.072L29.2265 143.535L22.6401 142.948Z" fill="white" stroke="#D92F08" stroke-width="2"/>
<path d="M44.0381 123.81L56.3438 124.907L56.1003 128.352L47.4737 128.931L47.255 132.025L55.368 131.705L55.0016 136.889L46.5458 137.387L46.2662 141.342L54.7287 140.748L54.3229 146.49L41.799 146.144L44.0381 123.81Z" fill="white" stroke="#D92F08" stroke-width="2"/>
<path d="M63.1772 137.701L59.335 125.174L64.791 125.66L68.5881 133.934L71.4247 126.745L77.1838 127.259L73.9018 137.011L76.7757 148.134L71.363 147.652L68.2381 138.885L63.2873 146.932L57.8313 146.446L63.1772 137.701Z" fill="white" stroke="#D92F08" stroke-width="2"/>
<path d="M81.3791 132.847L80.2734 127.04L96.0937 128.45L96.8227 134.223L92.1143 133.804L91.0116 149.403L85.7382 148.933L86.8409 133.334L81.3791 132.847Z" fill="white" stroke="#D92F08" stroke-width="2"/>
<path d="M18.6488 198.558L20.5041 211.13L6.43162 214.315L18.6209 224.211L5.21931 233.647L21.6478 235.919L17.1912 245.052L36.0292 241.499C33.6261 250.916 34.3052 253.473 34.3632 253.071C34.4211 252.668 44.7695 249.891 55.538 244.196L65.2391 256.827L78.1997 246.817L93.3244 258.144L98.2881 245.489L114.934 246.251L105.885 229.093L120.626 217.627L103.806 214.437L107.743 201.64L91.5504 208.638L86.2462 194.563L71.0147 205.798L60.353 188.93L50.9925 203.03L36.7497 192.85L34.8664 205.931L18.6488 198.558Z" fill="#0F9711" stroke="url(#pattern2_407_151)" stroke-width="3" stroke-linejoin="round"/>
<path d="M27.0123 238.001L26.861 227.912L24.8538 220.957L31.1373 219.962L37.7675 227.79L32.7299 218.485L40.6602 217.837L43.9906 237.959L38.2281 237.949L33.6083 228.803L33.8384 237.442L27.0123 238.001Z" fill="white" stroke="#D92F08" stroke-width="2"/>
<path d="M46.0464 217.397L58.7999 216.354L59.0652 219.47L50.3259 221.405L50.5642 224.203L58.8166 222.584L59.2158 227.273L50.6392 229.107L50.9437 232.685L59.513 230.764L59.9551 235.957L47.0905 237.706L46.0464 217.397Z" fill="white" stroke="#D92F08" stroke-width="2"/>
<path d="M67.702 226.655L61.9004 216.101L67.5549 215.638L72.6751 222.402L74.5039 215.517L80.4726 215.029L78.571 224.276L83.1723 233.737L77.5626 234.195L73.0564 226.88L69.193 234.88L63.5384 235.342L67.702 226.655Z" fill="white" stroke="#D92F08" stroke-width="2"/>
<path d="M85.5989 219.33L83.6006 214.326L99.9966 212.986L101.605 218.021L96.7248 218.42L97.926 232.53L92.4607 232.977L91.2595 218.867L85.5989 219.33Z" fill="white" stroke="#D92F08" stroke-width="2"/>
<defs>
<pattern id="pattern0_407_151" patternUnits="userSpaceOnUse" patternTransform="matrix(34 0 0 17 -0.0463552 -0.0546119)" preserveAspectRatio="none" viewBox="0 0 34 17" width="1" height="1">
<g id="pattern0_407_151_inner">
<rect width="17" height="17" fill="#FF9705"/>
<rect x="17" width="17" height="17" fill="#FF9705"/>
</g>
</pattern><pattern id="pattern1_407_151" patternUnits="userSpaceOnUse" patternTransform="matrix(33.9096 -2.47743 0.983424 16.9715 -0.132098 98.6618)" preserveAspectRatio="none" viewBox="0 0 34 17" width="1" height="1">
<g id="pattern1_407_151_inner">
<rect width="17" height="17" fill="#FF9705"/>
<rect x="17" width="17" height="17" fill="#FF9705"/>
</g>
</pattern><pattern id="pattern2_407_151" patternUnits="userSpaceOnUse" patternTransform="matrix(33.6796 4.65679 -2.42247 16.8265 9.75723 180.366)" preserveAspectRatio="none" viewBox="0 0 34 17" width="1" height="1">
<g id="pattern2_407_151_inner">
<rect width="17" height="17" fill="#FF9705"/>
<rect x="17" width="17" height="17" fill="#FF9705"/>
</g>
</pattern></defs>
</svg>
